<?xml version="1.0" standalone="no"?>
<!DOCTYPE svg PUBLIC "-//W3C//DTD SVG 20010904//EN"
 "http://www.w3.org/TR/2001/REC-SVG-20010904/DTD/svg10.dtd">

<svg version="1.0" xmlns="http://www.w3.org/2000/svg"
 width="118" height="42" viewBox="0 0 500.000000 500.000000"
 preserveAspectRatio="xMidYMid meet" alt='DDC'>

<g transform="translate(0.000000,500.000000) scale(0.100000,-0.100000)"
fill="#000000" stroke="none">
<path d="M0 2500 l0 -2500 2500 0 2500 0 0 2500 0 2500 -2500 0 -2500 0 0
-2500z m3258 954 c320 -66 547 -294 608 -611 110 -578 -413 -1231 -1042 -1302
-49 -5 -316 -10 -592 -10 l-502 -1 5 23 c11 48 53 272 51 274 -1 1 -88 3 -194
3 -106 1 -192 5 -192 9 0 5 11 62 24 127 13 66 27 136 30 157 l7 37 359 0
c198 0 360 -1 360 -3 0 -2 -11 -61 -25 -132 -14 -72 -25 -138 -25 -148 0 -17
18 -18 383 -15 367 4 385 5 451 27 146 48 241 106 346 210 125 124 199 265
228 434 13 77 13 97 -1 175 -34 206 -144 336 -345 409 -65 24 -76 25 -306 24
-132 -1 -242 -4 -245 -7 -3 -3 -12 -40 -21 -82 l-15 -77 -447 -2 c-247 -1
-448 1 -448 5 0 4 14 76 30 161 17 85 30 156 30 158 0 1 126 3 279 3 l280 0
11 58 c6 31 13 69 16 85 l6 27 409 0 c335 0 424 -3 487 -16z m-265 -592 c2 -4
-10 -77 -27 -162 l-31 -155 -448 -2 -447 -2 5 22 c3 12 16 81 30 152 14 72 27
135 29 142 4 8 119 11 445 12 242 0 442 -3 444 -7z m-1143 -176 c0 -11 -44
-245 -55 -293 l-5 -23 -375 0 c-265 0 -375 3 -375 11 0 9 42 234 55 296 l5 22
375 0 c294 0 375 -3 375 -13z"/>
</g>
</svg>
